<svg width="131" height="40" viewBox="0 0 131 40" fill="none" xmlns="http://www.w3.org/2000/svg">
<path fill-rule="evenodd" clip-rule="evenodd" d="M128.291 15.914L128.514 15.9133C128.677 15.9184 128.647 15.8917 128.757 16.1552L129.326 17.5257C129.418 17.7478 129.608 17.7199 129.702 17.5147L130.341 16.123C130.443 15.9006 130.415 15.9193 130.558 15.9182L130.803 15.9181C131.038 15.9268 130.996 15.8722 130.998 16.4216C130.998 17.1973 130.999 18.018 131 18.7936C130.995 19.0726 131.026 19.0449 130.906 19.0473L130.57 19.0472C130.454 19.0472 130.483 19.0609 130.481 18.7787V17.3016L130.349 17.3017C130.309 17.3025 130.298 17.295 130.257 17.3834L129.736 18.505C129.635 18.701 129.671 18.6895 129.55 18.6925L129.485 18.6939C129.373 18.6918 129.408 18.7118 129.305 18.5257L128.731 17.3981C128.684 17.3064 128.698 17.2935 128.636 17.2923L128.574 17.2913L128.571 18.8668C128.566 19.0917 128.605 19.0593 128.435 19.0617L128.212 19.0619C128.062 19.0593 128.085 19.0803 128.086 18.8469L128.086 16.1235C128.086 15.8919 128.065 15.9166 128.291 15.914V15.914Z" fill="white"/>
<path fill-rule="evenodd" clip-rule="evenodd" d="M125.564 16.0438C125.564 15.957 125.581 15.9308 125.701 15.9329L127.444 15.9294C127.626 15.9296 127.595 15.9739 127.6 16.1024L127.601 16.3515C127.6 16.4674 127.614 16.4623 127.449 16.4655L126.854 16.4663L126.848 18.8376C126.846 19.0614 126.874 19.0626 126.63 19.0631L126.396 19.0649C126.197 19.061 126.227 19.0658 126.222 18.8151L126.221 16.4667L125.668 16.4677C125.574 16.4673 125.57 16.4571 125.566 16.3578L125.564 16.0438H125.564V16.0438Z" fill="white"/>
<path fill-rule="evenodd" clip-rule="evenodd" d="M118.396 27.3057C116.319 27.3503 115.037 26.6194 114.85 24.5172C114.818 24.1546 114.863 24.006 115.137 24.03L122.348 23.997C122.991 23.997 122.894 24.016 122.918 23.0856C123.139 16.8829 120.559 15.9222 117.66 15.9628C113.682 16.0186 112.046 18.6202 112.225 23.3215C112.41 28.2048 114.741 29.6185 118.376 29.5411C119.66 29.5138 120.899 29.4001 122.079 29.0452L122.369 28.7212V27.2991C122.399 26.683 122.321 26.8198 121.91 26.906C120.447 27.2131 120.39 27.2628 118.396 27.3057ZM120.26 21.7987L114.912 21.7994C114.822 21.7994 114.826 21.7546 114.826 21.6909C114.826 19.8149 115.777 18.3628 117.668 18.3775C119.531 18.3919 120.399 19.1068 120.408 21.708C120.409 21.7923 120.389 21.7979 120.26 21.7988L120.26 21.7987Z" fill="white"/>
<path fill-rule="evenodd" clip-rule="evenodd" d="M104.733 18.4243C103.921 18.4434 102.403 18.7004 102.369 19.215L102.361 28.8286C102.368 29.3499 102.322 29.364 101.839 29.3806L100.31 29.3806C99.8648 29.3787 99.7511 29.412 99.7582 28.7004L99.7358 17.0745C99.7315 16.2654 99.6794 16.1894 100.108 16.2019H101.295C101.678 16.1997 101.67 16.2476 101.668 16.709C101.667 16.8941 101.737 17.0547 101.865 17.0523C102.355 17.043 102.725 16.0536 105.431 16.0112C108.639 15.961 109.897 17.6994 109.939 20.6405L109.931 28.4694C109.937 29.4537 110.057 29.3782 109.259 29.3873L107.984 29.3873C107.112 29.3864 107.273 29.4097 107.261 28.4168L107.231 20.2142C107.26 18.6941 106.802 18.3755 104.733 18.4243V18.4243V18.4243Z" fill="white"/>
<path fill-rule="evenodd" clip-rule="evenodd" d="M94.5061 16.196H96.269C96.5029 16.196 96.6943 16.3875 96.6943 16.6214V29.2304C96.6943 29.4394 96.5234 29.6104 96.3143 29.6104H94.4157C94.2191 29.6104 94.0584 29.4496 94.0584 29.2531V16.6438C94.0584 16.3975 94.2598 16.196 94.5061 16.196ZM95.4117 10.5648C96.2964 10.5648 97.0135 11.268 97.0135 12.1353C97.0135 13.0026 96.2964 13.7057 95.4117 13.7057C94.527 13.7057 93.8098 13.0026 93.8098 12.1353C93.8098 11.268 94.527 10.5648 95.4117 10.5648Z" fill="white"/>
<path fill-rule="evenodd" clip-rule="evenodd" d="M89.017 10.0181H90.7691C91.0022 10.0187 91.1911 10.2076 91.1918 10.4408L91.1918 29.1484C91.1912 29.3566 91.0225 29.5254 90.8142 29.526L88.9271 29.526C88.7312 29.5254 88.5726 29.3667 88.572 29.1709V10.4631C88.5727 10.2175 88.7716 10.0187 89.017 10.018V10.0181Z" fill="white"/>
<path fill-rule="evenodd" clip-rule="evenodd" d="M81.7286 27.3508C79.6519 27.3954 78.3698 26.6645 78.1828 24.5623C78.1505 24.1997 78.1957 24.0511 78.4696 24.0751L85.6807 24.0421C86.3234 24.0421 86.227 24.0611 86.2504 23.1307C86.4719 16.928 83.8921 15.9673 80.9929 16.0079C77.0145 16.0637 75.3792 18.6653 75.5577 23.3666C75.743 28.2499 78.0742 29.6636 81.709 29.5862C82.9924 29.5589 84.239 29.4676 85.4122 29.0903C85.6456 29.0153 85.7064 29.0462 85.7014 28.6566V27.3443C85.7314 26.7281 85.6539 26.8649 85.2428 26.9511C83.7798 27.2582 83.7228 27.3079 81.7286 27.3508V27.3508ZM83.5932 21.8438L78.2449 21.8445C78.1549 21.8445 78.1591 21.7997 78.1591 21.736C78.1591 19.86 79.1099 18.4079 81.0012 18.4226C82.8634 18.437 83.7316 19.1519 83.7412 21.7531C83.7416 21.8374 83.7215 21.843 83.5932 21.8438Z" fill="white"/>
<path fill-rule="evenodd" clip-rule="evenodd" d="M68.8973 27.3508C66.8206 27.3954 65.5386 26.6645 65.3515 24.5623C65.3193 24.1997 65.3645 24.0511 65.6383 24.0751L72.8494 24.0421C73.4921 24.0421 73.3958 24.0611 73.4192 23.1307C73.6407 16.928 71.0609 15.9673 68.1616 16.0079C64.1832 16.0637 62.548 18.6653 62.7265 23.3666C62.9118 28.2499 65.243 29.6636 68.8777 29.5862C70.1612 29.5589 71.4087 29.4707 72.581 29.0903C72.8518 29.0024 72.8593 28.9499 72.8702 28.7663V27.3443C72.9002 26.7281 72.8226 26.8649 72.4116 26.9511C70.9486 27.2582 70.8916 27.3079 68.8973 27.3508ZM70.762 21.8438L65.4137 21.8445C65.3237 21.8445 65.3279 21.7997 65.3279 21.736C65.3279 19.86 66.2787 18.4079 68.17 18.4226C70.0322 18.437 70.9004 19.1519 70.91 21.7531C70.9103 21.8374 70.8903 21.843 70.762 21.8438V21.8438Z" fill="white"/>
<path fill-rule="evenodd" clip-rule="evenodd" d="M54.8237 20.8665L50.8617 20.8619C50.3859 20.8484 50.3664 21.0902 50.3843 21.4795L50.4535 26.5408C50.4588 27.0145 50.4619 26.9934 50.9287 27.0076L55.0061 27.0077C56.8751 26.9156 57.898 25.9121 57.9461 24.2833C58.0013 22.4146 57.3854 20.913 54.8237 20.8666L54.8237 20.8665V20.8665ZM54.4983 12.7028L50.8264 12.6986C50.3855 12.6864 50.3675 12.9053 50.384 13.2577L50.4481 17.8391C50.4531 18.2679 50.4559 18.2488 50.8885 18.2617H54.6673C56.3995 18.1784 57.3474 17.27 57.392 15.7956C57.4432 14.1041 56.8724 12.7448 54.4983 12.7028H54.4983ZM47.8111 28.7735L47.7279 10.9482C47.7116 10.2346 47.7333 10.1677 48.3724 10.1726H54.8958C58.1455 10.6197 59.8186 11.5854 60.2073 14.7994C60.4056 16.4398 59.8796 18.2571 58.247 19.2417C62.4855 21.6884 62.2763 29.5793 54.4162 29.5545H48.5431C47.8475 29.5684 47.815 29.4079 47.8111 28.7735V28.7735V28.7735Z" fill="white"/>
<path d="M20.0951 39.9994C31.1934 39.9994 40.1903 31.0452 40.1903 19.9997C40.1903 8.95416 31.1934 0 20.0951 0C8.9969 0 0 8.95416 0 19.9997C0 31.0452 8.9969 39.9994 20.0951 39.9994Z" fill="url(#paint0_radial_5_21)"/>
<path fill-rule="evenodd" clip-rule="evenodd" d="M5.16146 6.61709C3.13886 8.81913 1.53276 11.6072 0.649445 14.9369C13.1233 14.722 26.432 14.7902 39.5634 15.0235C38.7552 11.8845 37.1857 8.98358 35.0015 6.58798C25.582 5.95355 14.8433 5.82379 5.16126 6.61792L5.16146 6.61709V6.61709Z" fill="url(#paint1_linear_5_21)"/>
<path fill-rule="evenodd" clip-rule="evenodd" d="M5.09541 33.3075C3.06254 31.0566 1.44828 28.2066 0.560486 24.8029C13.0977 25.0225 26.4226 24.9882 39.6206 24.7496C39.0259 27.8627 37.0432 31.4317 34.8622 33.6127C25.345 34.0092 14.8264 34.1185 5.09521 33.3067L5.09541 33.3075Z" fill="url(#paint2_linear_5_21)"/>
<defs>
<radialGradient id="paint0_radial_5_21" cx="0" cy="0" r="1" gradientUnits="userSpaceOnUse" gradientTransform="translate(27.3311 12.8018) scale(20.715 20.2338)">
<stop stop-color="#7A7A7A"/>
<stop offset="0.509804" stop-color="#3D3D3D"/>
<stop offset="1"/>
</radialGradient>
<linearGradient id="paint1_linear_5_21" x1="0.649445" y1="10.545" x2="39.5634" y2="10.545" gradientUnits="userSpaceOnUse">
<stop stop-color="#994F00"/>
<stop offset="0.109804" stop-color="#AF6300"/>
<stop offset="0.329412" stop-color="#F0A000"/>
<stop offset="0.678431" stop-color="#FFFF00"/>
<stop offset="1" stop-color="#FFD900"/>
</linearGradient>
<linearGradient id="paint2_linear_5_21" x1="0.560679" y1="29.233" x2="39.6721" y2="29.233" gradientUnits="userSpaceOnUse">
<stop stop-color="#994F00"/>
<stop offset="0.109804" stop-color="#AF6300"/>
<stop offset="0.329412" stop-color="#F0A000"/>
<stop offset="0.678431" stop-color="#FFFF00"/>
<stop offset="1" stop-color="#FFD900"/>
</linearGradient>
</defs>
</svg>
